<svg width="1177" height="1177" viewBox="0 0 1177 1177" fill="none" xmlns="http://www.w3.org/2000/svg">
<rect width="1175.81" height="1175.81" transform="translate(0.596802 0.596771)" fill="white"/>
<path d="M990.364 393.994C1025.23 373.865 1070.34 385.685 1085.47 422.991C1123.11 515.782 1133.75 617.894 1115.32 717.338C1092.43 840.804 1026.25 952.053 928.661 1031.08C831.076 1110.1 708.497 1151.71 582.971 1148.42C457.445 1145.14 337.211 1097.17 243.896 1013.15C150.58 929.123 90.3066 814.562 73.9166 690.068C57.5266 565.573 86.0958 439.316 154.485 334.005C222.875 228.695 326.597 151.242 446.995 115.578C543.967 86.8539 646.632 86.7574 742.849 114.493C781.532 125.644 798.003 169.269 781.628 206.047C765.254 242.825 722.184 258.604 682.966 249.511C619.093 234.701 552.052 236.509 488.401 255.364C401.286 281.168 326.238 337.209 276.754 413.408C227.27 489.606 206.599 580.96 218.458 671.039C230.317 761.117 273.928 844.009 341.448 904.803C408.967 965.597 495.962 1000.31 586.787 1002.68C677.612 1005.06 766.305 974.955 836.913 917.777C907.522 860.6 955.411 780.105 971.968 690.77C984.066 625.496 978.856 558.634 957.452 496.659C944.309 458.606 955.499 414.123 990.364 393.994Z" fill="#4D93E6"/>
<path d="M625.316 461.684C660.62 419.61 732.585 394.377 774.961 429.935C817.337 465.492 800.978 550.52 765.674 592.593C730.37 634.667 652.742 661.649 610.366 626.091C567.99 590.534 590.012 503.757 625.316 461.684Z" fill="#4D93E6"/>
<path d="M785.5 479.709L723.451 427.643L1023.81 69.6902C1038.19 52.5557 1063.73 50.3207 1080.87 64.6983C1098 79.0759 1100.24 104.621 1085.86 121.756L785.5 479.709Z" fill="#4D93E6"/>
</svg>
